<?xml version="1.0" encoding="UTF-8" standalone="no"?>
<svg
   xmlns:dc="http://purl.org/dc/elements/1.1/"
   xmlns:cc="http://creativecommons.org/ns#"
   xmlns:rdf="http://www.w3.org/1999/02/22-rdf-syntax-ns#"
   xmlns:svg="http://www.w3.org/2000/svg"
   xmlns="http://www.w3.org/2000/svg"
   xmlns:sodipodi="http://sodipodi.sourceforge.net/DTD/sodipodi-0.dtd"
   xmlns:inkscape="http://www.inkscape.org/namespaces/inkscape"
   inkscape:export-ydpi="96"
   inkscape:export-xdpi="96"
   inkscape:export-filename="C:\Users\aaron\OneDrive\Dokumente\Jackson Eats\Logo\linkedinprofile.png"
   sodipodi:docname="favicon.svg"
   inkscape:version="1.0 (4035a4fb49, 2020-05-01)"
   id="svg8"
   version="1.1"
   viewBox="0 0 105.83333 105.83333"
   height="400"
   width="400">
  <defs
     id="defs2">
    <rect
       id="rect106"
       height="27.970238"
       width="53.672619"
       y="164.41965"
       x="74.083336" />
    <rect
       id="rect100"
       height="32.88393"
       width="49.892857"
       y="165.55357"
       x="76.351189" />
  </defs>
  <sodipodi:namedview
     inkscape:window-maximized="0"
     inkscape:window-y="0"
     inkscape:window-x="64"
     inkscape:window-height="1030"
     inkscape:window-width="1566"
     units="px"
     showgrid="false"
     inkscape:document-rotation="0"
     inkscape:current-layer="g132"
     inkscape:document-units="px"
     inkscape:cy="205.86011"
     inkscape:cx="108.35695"
     inkscape:zoom="0.98994949"
     inkscape:pageshadow="2"
     inkscape:pageopacity="0.0"
     borderopacity="1.0"
     bordercolor="#666666"
     pagecolor="#ffffff"
     id="base" />
  <metadata
     id="metadata5">
    <rdf:RDF>
      <cc:Work
         rdf:about="">
        <dc:format>image/svg+xml</dc:format>
        <dc:type
           rdf:resource="http://purl.org/dc/dcmitype/StillImage" />
        <dc:title></dc:title>
      </cc:Work>
    </rdf:RDF>
  </metadata>
  <g
     id="layer1"
     inkscape:groupmode="layer"
     inkscape:label="Layer 1">
    <g
       transform="matrix(0.88894788,0,0,0.88894788,-18.28823,-86.278422)"
       id="g132">
      <text
         id="text40"
         y="58.78952"
         x="49.778496"
         style="font-style:normal;font-weight:normal;font-size:10.5833px;line-height:1.25;font-family:sans-serif;fill:#000000;fill-opacity:1;stroke:none;stroke-width:0.264583"
         xml:space="preserve"><tspan
           style="font-style:normal;font-variant:normal;font-weight:bold;font-stretch:normal;font-size:25.4px;font-family:sans-serif;-inkscape-font-specification:'sans-serif Bold';stroke-width:0.264583"
           y="58.78952"
           x="49.778496"
           id="tspan38"
           sodipodi:role="line">Jackson</tspan><tspan
           id="tspan50"
           style="font-style:normal;font-variant:normal;font-weight:bold;font-stretch:normal;font-size:25.4px;font-family:sans-serif;-inkscape-font-specification:'sans-serif Bold';stroke-width:0.264583"
           y="90.53952"
           x="49.778496"
           sodipodi:role="line">Eats</tspan></text>
      <path
         id="path46"
         d="m 76.343486,194.05235 c -4.536626,-0.19123 -8.601231,-0.76237 -12.785244,-1.79685 -3.367236,-0.83254 -5.750648,-1.76145 -8.1655,-3.18246 -1.493622,-0.87893 -2.353897,-1.55023 -4.725571,-3.68755 -5.278427,-4.75684 -10.466439,-12.07258 -15.052663,-21.22607 -4.280705,-8.5438 -8.838144,-21.38479 -11.442236,-32.23957 -0.387032,-1.61329 -0.803696,-3.31239 -0.925934,-3.77573 -0.122323,-0.46339 -0.267714,-1.17932 -0.323358,-1.59098 l -0.10102,-0.74853 0.640527,-0.56506 c 0.352261,-0.31077 0.988001,-0.74075 1.412753,-0.95545 3.228154,-1.6318 11.39932,-2.54743 26.256788,-2.94223 13.530578,-0.35952 53.409632,-0.27734 62.974112,0.12961 9.52921,0.40558 16.13364,1.1033 19.39797,2.04922 2.60348,0.75448 4.09135,1.93158 3.94436,3.12047 -0.16408,1.32753 -2.32844,9.83984 -3.45228,13.57828 -2.99587,9.96534 -6.10249,17.99511 -9.56081,24.71231 -4.92377,9.56351 -9.78351,16.12516 -15.94564,21.52993 -2.54196,2.22952 -4.58392,3.44869 -7.88798,4.70958 -2.729974,1.0418 -7.9316,2.12994 -12.471541,2.60899 -1.465332,0.15444 -7.399419,0.43628 -8.494855,0.40324 -0.347533,-0.0109 -1.828832,-0.0695 -3.291769,-0.13112 z m 9.757684,-0.97301 c 8.207802,-0.63057 15.11729,-2.50479 19.36961,-5.2541 1.84146,-1.19057 5.4762,-4.57809 7.85576,-7.32143 8.97999,-10.35278 16.70274,-27.31048 21.91842,-48.1286 0.46373,-1.8509 0.82454,-3.42106 0.80181,-3.48921 -0.0234,-0.0684 -0.38779,0.0605 -0.81124,0.28611 -9.99883,5.32398 -52.014664,7.77374 -84.595044,4.93235 -12.129883,-1.05786 -22.165264,-2.99617 -25.457441,-4.91708 -0.670249,-0.39103 -0.894959,-0.3581 -0.786034,0.11531 1.726769,7.50223 4.405336,16.30523 7.074881,23.25114 4.246928,11.05014 9.849968,21.13114 15.386153,27.68285 2.342568,2.77222 6.134235,6.33403 8.109068,7.61746 4.195983,2.72691 11.494058,4.6621 19.894195,5.27529 1.585701,0.11586 9.543484,0.0803 11.239862,-0.0499 z"
         style="fill:#000000;stroke:#000000;stroke-width:0.14041" />
    </g>
    <g
       transform="matrix(0.65231789,0,0,0.65231789,-94.633475,-128.84955)"
       id="g126">
      <g
         transform="matrix(1.4274548,0,0,1.4274548,-42.769428,-48.355167)"
         id="g144">
        <path
           id="path46-9"
           d="m 122.72058,158.44446 c -1.55393,-0.0655 -2.94618,-0.26113 -4.37933,-0.61547 -1.15338,-0.28517 -1.96977,-0.60335 -2.79693,-1.09009 -0.51161,-0.30106 -0.80628,-0.531 -1.61865,-1.2631 -1.80802,-1.62936 -3.58507,-4.13522 -5.15599,-7.27056 -1.46627,-2.92651 -3.02733,-7.32494 -3.91931,-11.04303 -0.13257,-0.5526 -0.27529,-1.13459 -0.31716,-1.2933 -0.0419,-0.15872 -0.0917,-0.40395 -0.11076,-0.54496 l -0.0346,-0.25639 0.2194,-0.19355 c 0.12066,-0.10645 0.33842,-0.25373 0.48391,-0.32727 1.10574,-0.55894 3.90461,-0.87257 8.99374,-1.0078 4.63463,-0.12315 18.29441,-0.095 21.57053,0.0444 3.26404,0.13892 5.52626,0.37791 6.64439,0.70192 0.89177,0.25843 1.40141,0.66162 1.35106,1.06885 -0.0562,0.45472 -0.79756,3.37044 -1.18251,4.65097 -1.02617,3.41343 -2.09028,6.16387 -3.27487,8.46471 -1.68654,3.27579 -3.35114,5.52335 -5.46186,7.37465 -0.8707,0.76368 -1.57013,1.18128 -2.70187,1.61317 -0.9351,0.35685 -2.71681,0.72957 -4.27188,0.89366 -0.50192,0.0529 -2.53452,0.14944 -2.90974,0.13812 -0.11904,-0.004 -0.62643,-0.0238 -1.12753,-0.0449 z m 3.3423,-0.33328 c 2.81142,-0.21599 5.17813,-0.85797 6.63468,-1.79969 0.63075,-0.4078 1.87576,-1.56813 2.69083,-2.50781 3.07592,-3.54614 5.72119,-9.35466 7.50772,-16.48549 0.15884,-0.63399 0.28243,-1.17182 0.27464,-1.19516 -0.008,-0.0234 -0.13283,0.0207 -0.27787,0.098 -3.4249,1.82362 -17.81659,2.66274 -28.97635,1.68948 -4.15485,-0.36235 -7.59227,-1.02628 -8.71994,-1.68425 -0.22958,-0.13394 -0.30655,-0.12266 -0.26924,0.0395 0.59147,2.56974 1.50896,5.58503 2.42336,7.96421 1.4547,3.78501 3.37391,7.23805 5.27022,9.48221 0.8024,0.94957 2.10116,2.1696 2.7776,2.60921 1.43725,0.93405 3.93706,1.59691 6.81436,1.80695 0.54315,0.0397 3.26893,0.0275 3.84999,-0.0171 z"
           style="fill:#000000;stroke:#000000;stroke-width:0.0480949" />
        <text
           id="text40-9"
           y="146.30814"
           x="125.1254"
           style="font-style:normal;font-weight:normal;font-size:5.40807px;line-height:1.25;font-family:sans-serif;fill:#000000;fill-opacity:1;stroke:none;stroke-width:0.140369"
           xml:space="preserve"><tspan
             id="tspan50-1"
             style="font-style:normal;font-variant:normal;font-weight:bold;font-stretch:normal;font-size:5.40807px;font-family:sans-serif;-inkscape-font-specification:'sans-serif Bold';text-align:center;text-anchor:middle;stroke-width:0.140369"
             y="146.30814"
             x="125.1254"
             sodipodi:role="line">Jackson </tspan><tspan
             id="tspan138"
             style="font-style:normal;font-variant:normal;font-weight:bold;font-stretch:normal;font-size:5.40807px;font-family:sans-serif;-inkscape-font-specification:'sans-serif Bold';text-align:center;text-anchor:middle;stroke-width:0.140369"
             y="153.06822"
             x="125.1254"
             sodipodi:role="line">Eats</tspan></text>
      </g>
    </g>
    <text
       style="font-style:normal;font-weight:normal;font-size:10.5833px;line-height:1.25;font-family:sans-serif;white-space:pre;shape-inside:url(#rect100);fill:#000000;fill-opacity:1;stroke:none;"
       id="text98"
       xml:space="preserve" />
    <text
       style="font-style:normal;font-weight:normal;font-size:10.5833px;line-height:1.25;font-family:sans-serif;white-space:pre;shape-inside:url(#rect106);fill:#000000;fill-opacity:1;stroke:none;"
       id="text104"
       xml:space="preserve" />
  </g>
</svg>
