<?xml version="1.0" encoding="UTF-8" standalone="no"?>
<svg
   xmlns:dc="http://purl.org/dc/elements/1.1/"
   xmlns:cc="http://creativecommons.org/ns#"
   xmlns:rdf="http://www.w3.org/1999/02/22-rdf-syntax-ns#"
   xmlns:svg="http://www.w3.org/2000/svg"
   xmlns="http://www.w3.org/2000/svg"
   xmlns:sodipodi="http://sodipodi.sourceforge.net/DTD/sodipodi-0.dtd"
   xmlns:inkscape="http://www.inkscape.org/namespaces/inkscape"
   width="400"
   height="400"
   viewBox="0 0 105.83333 105.83333"
   version="1.1"
   id="svg8"
   inkscape:version="1.0.1 (3bc2e813f5, 2020-09-07)"
   sodipodi:docname="original.svg"
   inkscape:export-filename="C:\Users\aaron\OneDrive\Dokumente\Jackson Eats\Logo\linkedinprofile.png"
   inkscape:export-xdpi="96"
   inkscape:export-ydpi="96">
  <defs
     id="defs2">
    <rect
       x="74.083336"
       y="164.41965"
       width="53.672619"
       height="27.970238"
       id="rect106" />
    <rect
       x="76.351189"
       y="165.55357"
       width="49.892857"
       height="32.88393"
       id="rect100" />
  </defs>
  <sodipodi:namedview
     id="base"
     pagecolor="#ffffff"
     bordercolor="#666666"
     borderopacity="1.0"
     inkscape:pageopacity="0.0"
     inkscape:pageshadow="2"
     inkscape:zoom="0.98994949"
     inkscape:cx="108.35695"
     inkscape:cy="205.86011"
     inkscape:document-units="px"
     inkscape:current-layer="layer1"
     inkscape:document-rotation="0"
     showgrid="false"
     units="px"
     inkscape:window-width="1566"
     inkscape:window-height="1030"
     inkscape:window-x="64"
     inkscape:window-y="0"
     inkscape:window-maximized="0" />
  <metadata
     id="metadata5">
    <rdf:RDF>
      <cc:Work
         rdf:about="">
        <dc:format>image/svg+xml</dc:format>
        <dc:type
           rdf:resource="http://purl.org/dc/dcmitype/StillImage" />
        <dc:title></dc:title>
      </cc:Work>
    </rdf:RDF>
  </metadata>
  <g
     inkscape:label="Layer 1"
     inkscape:groupmode="layer"
     id="layer1">
    <g
       id="g132"
       transform="matrix(0.88894788,0,0,0.88894788,-38.867983,-7.1666437)">
      <text
         xml:space="preserve"
         style="font-style:normal;font-weight:normal;font-size:10.5833px;line-height:1.25;font-family:sans-serif;fill:#000000;fill-opacity:1;stroke:none;stroke-width:0.264583"
         x="49.778496"
         y="58.78952"
         id="text40"><tspan
           sodipodi:role="line"
           id="tspan38"
           x="49.778496"
           y="58.78952"
           style="font-style:normal;font-variant:normal;font-weight:bold;font-stretch:normal;font-size:25.4px;font-family:sans-serif;-inkscape-font-specification:'sans-serif Bold';stroke-width:0.264583">Jackson</tspan><tspan
           sodipodi:role="line"
           x="49.778496"
           y="90.53952"
           style="font-style:normal;font-variant:normal;font-weight:bold;font-stretch:normal;font-size:25.4px;font-family:sans-serif;-inkscape-font-specification:'sans-serif Bold';stroke-width:0.264583"
           id="tspan50">Eats</tspan></text>
      <path
         style="fill:#000000;stroke:#000000;stroke-width:0.0480948"
         d="m 134.30971,94.367998 c -1.55393,-0.0655 -2.94618,-0.26113 -4.37933,-0.61547 -1.15338,-0.28517 -1.96977,-0.60335 -2.79693,-1.09009 -0.51161,-0.30106 -0.80628,-0.531 -1.61865,-1.2631 -1.80802,-1.62936 -3.58507,-4.13522 -5.15599,-7.27056 -1.46627,-2.92651 -3.02733,-7.32494 -3.91931,-11.04303 -0.13257,-0.5526 -0.27529,-1.13459 -0.31716,-1.2933 -0.0419,-0.15872 -0.0917,-0.40395 -0.11076,-0.54496 l -0.0346,-0.25639 0.2194,-0.19355 c 0.12066,-0.10645 0.33842,-0.25373 0.48391,-0.32727 1.10574,-0.55894 3.90461,-0.87257 8.99374,-1.0078 4.63463,-0.12315 18.29441,-0.095 21.57053,0.0444 3.26404,0.13892 5.52626,0.37791 6.64439,0.70192 0.89177,0.25843 1.40141,0.66162 1.35106,1.06885 -0.0562,0.45472 -0.79756,3.37044 -1.18251,4.65097 -1.02617,3.41343 -2.09028,6.16387 -3.27487,8.46471 -1.68654,3.27579 -3.35114,5.52335 -5.46186,7.37465 -0.8707,0.76368 -1.57013,1.18128 -2.70187,1.61317 -0.9351,0.35685 -2.71681,0.72957 -4.27188,0.89366 -0.50192,0.0529 -2.53452,0.14944 -2.90974,0.13812 -0.11904,-0.004 -0.62643,-0.0238 -1.12753,-0.0449 z m 3.3423,-0.33328 c 2.81142,-0.21599 5.17813,-0.85797 6.63468,-1.79969 0.63075,-0.4078 1.87576,-1.56813 2.69083,-2.50781 3.07592,-3.54614 5.72119,-9.35466 7.50772,-16.48549 0.15884,-0.63399 0.28243,-1.17182 0.27464,-1.19516 -0.008,-0.0234 -0.13283,0.0207 -0.27787,0.098 -3.4249,1.82362 -17.81659,2.66274 -28.97635,1.68948 -4.15485,-0.36235 -7.59227,-1.02628 -8.71994,-1.68425 -0.22958,-0.13394 -0.30655,-0.12266 -0.26924,0.0395 0.59147,2.56974 1.50896,5.58503 2.42336,7.96421 1.4547,3.78501 3.37391,7.23805 5.27022,9.48221 0.8024,0.94957 2.10116,2.1696 2.7776,2.60921 1.43725,0.93405 3.93706,1.59691 6.81436,1.80695 0.54315,0.0397 3.26893,0.0275 3.84999,-0.0171 z"
         id="path46" />
    </g>
    <g
       id="g126"
       transform="matrix(0.65231789,0,0,0.65231789,-94.633475,-128.84955)">
      <g
         id="g144"
         transform="matrix(1.4274548,0,0,1.4274548,-42.769428,-48.355167)">
        <path
           style="fill:#000000;stroke:#000000;stroke-width:0.0480949"
           d="m 122.72058,158.44446 c -1.55393,-0.0655 -2.94618,-0.26113 -4.37933,-0.61547 -1.15338,-0.28517 -1.96977,-0.60335 -2.79693,-1.09009 -0.51161,-0.30106 -0.80628,-0.531 -1.61865,-1.2631 -1.80802,-1.62936 -3.58507,-4.13522 -5.15599,-7.27056 -1.46627,-2.92651 -3.02733,-7.32494 -3.91931,-11.04303 -0.13257,-0.5526 -0.27529,-1.13459 -0.31716,-1.2933 -0.0419,-0.15872 -0.0917,-0.40395 -0.11076,-0.54496 l -0.0346,-0.25639 0.2194,-0.19355 c 0.12066,-0.10645 0.33842,-0.25373 0.48391,-0.32727 1.10574,-0.55894 3.90461,-0.87257 8.99374,-1.0078 4.63463,-0.12315 18.29441,-0.095 21.57053,0.0444 3.26404,0.13892 5.52626,0.37791 6.64439,0.70192 0.89177,0.25843 1.40141,0.66162 1.35106,1.06885 -0.0562,0.45472 -0.79756,3.37044 -1.18251,4.65097 -1.02617,3.41343 -2.09028,6.16387 -3.27487,8.46471 -1.68654,3.27579 -3.35114,5.52335 -5.46186,7.37465 -0.8707,0.76368 -1.57013,1.18128 -2.70187,1.61317 -0.9351,0.35685 -2.71681,0.72957 -4.27188,0.89366 -0.50192,0.0529 -2.53452,0.14944 -2.90974,0.13812 -0.11904,-0.004 -0.62643,-0.0238 -1.12753,-0.0449 z m 3.3423,-0.33328 c 2.81142,-0.21599 5.17813,-0.85797 6.63468,-1.79969 0.63075,-0.4078 1.87576,-1.56813 2.69083,-2.50781 3.07592,-3.54614 5.72119,-9.35466 7.50772,-16.48549 0.15884,-0.63399 0.28243,-1.17182 0.27464,-1.19516 -0.008,-0.0234 -0.13283,0.0207 -0.27787,0.098 -3.4249,1.82362 -17.81659,2.66274 -28.97635,1.68948 -4.15485,-0.36235 -7.59227,-1.02628 -8.71994,-1.68425 -0.22958,-0.13394 -0.30655,-0.12266 -0.26924,0.0395 0.59147,2.56974 1.50896,5.58503 2.42336,7.96421 1.4547,3.78501 3.37391,7.23805 5.27022,9.48221 0.8024,0.94957 2.10116,2.1696 2.7776,2.60921 1.43725,0.93405 3.93706,1.59691 6.81436,1.80695 0.54315,0.0397 3.26893,0.0275 3.84999,-0.0171 z"
           id="path46-9" />
        <text
           xml:space="preserve"
           style="font-style:normal;font-weight:normal;font-size:5.40807px;line-height:1.25;font-family:sans-serif;fill:#000000;fill-opacity:1;stroke:none;stroke-width:0.140369"
           x="125.1254"
           y="146.30814"
           id="text40-9"><tspan
             sodipodi:role="line"
             x="125.1254"
             y="146.30814"
             style="font-style:normal;font-variant:normal;font-weight:bold;font-stretch:normal;font-size:5.40807px;font-family:sans-serif;-inkscape-font-specification:'sans-serif Bold';text-align:center;text-anchor:middle;stroke-width:0.140369"
             id="tspan50-1">Jackson </tspan><tspan
             sodipodi:role="line"
             x="125.1254"
             y="153.06822"
             style="font-style:normal;font-variant:normal;font-weight:bold;font-stretch:normal;font-size:5.40807px;font-family:sans-serif;-inkscape-font-specification:'sans-serif Bold';text-align:center;text-anchor:middle;stroke-width:0.140369"
             id="tspan138">Eats</tspan></text>
      </g>
    </g>
    <text
       xml:space="preserve"
       id="text98"
       style="font-style:normal;font-weight:normal;font-size:10.5833px;line-height:1.25;font-family:sans-serif;white-space:pre;shape-inside:url(#rect100);fill:#000000;fill-opacity:1;stroke:none;" />
    <text
       xml:space="preserve"
       id="text104"
       style="font-style:normal;font-weight:normal;font-size:10.5833px;line-height:1.25;font-family:sans-serif;white-space:pre;shape-inside:url(#rect106);fill:#000000;fill-opacity:1;stroke:none;" />
  </g>
</svg>
